# xmcd
#
# Track frame offsets: 
#        150
#        10687
#        34493
#        46654
#        61756
#        83359
#        101551
#        121720
#        137664
#        157481
#
# Disc length: 2256 seconds
#
# Revision: 0
# Processed by: cddbd v1.5.2PL0 Copyright (c) Steve Scherf et al.
# Submitted via: ExactAudioCopy v1.0b4
#
DISCID=7308ce0a
DTITLE=Junior Krauss and The Shakes - Junior Krauss and The Shakes
DYEAR=2009
DGENRE=Blues
TTITLE0=Nocturnal
TTITLE1=Too Many Drivers
TTITLE2=Big Big Lovin'
TTITLE3=Love My Blues Away
TTITLE4=Trip On Out
TTITLE5=Box Of Letters
TTITLE6=Jumpin' The Blues
TTITLE7=West Side Blues
TTITLE8=You're So Fine
TTITLE9=Caravan
EXTD=
EXTT0=
EXTT1=
EXTT2=
EXTT3=
EXTT4=
EXTT5=
EXTT6=
EXTT7=
EXTT8=
EXTT9=
PLAYORDER=
